<svg xmlns="http://www.w3.org/2000/svg" viewBox="0 0 640 480"><rect width="640" height="480" rx="28" fill="#eef3f9"/><circle cx="330" cy="240" r="185" fill="#e2ebf7"/><g transform="rotate(-8 320 245)"><rect x="103" y="151" width="436" height="192" rx="22" fill="#c2ccd9"/><rect x="103" y="144" width="436" height="192" rx="22" fill="#263d5c"/><rect x="130" y="184" width="27" height="22" rx="4" fill="#77a6e2"/><rect x="164" y="184" width="27" height="22" rx="4" fill="#77a6e2"/><rect x="198" y="184" width="27" height="22" rx="4" fill="#77a6e2"/><rect x="232" y="184" width="27" height="22" rx="4" fill="#77a6e2"/><rect x="266" y="184" width="27" height="22" rx="4" fill="#77a6e2"/><rect x="300" y="184" width="27" height="22" rx="4" fill="#77a6e2"/><rect x="334" y="184" width="27" height="22" rx="4" fill="#77a6e2"/><rect x="368" y="184" width="27" height="22" rx="4" fill="#77a6e2"/><rect x="402" y="184" width="27" height="22" rx="4" fill="#77a6e2"/><rect x="436" y="184" width="27" height="22" rx="4" fill="#77a6e2"/><rect x="470" y="184" width="27" height="22" rx="4" fill="#77a6e2"/><rect x="130" y="214" width="27" height="22" rx="4" fill="#f8fbff"/><rect x="164" y="214" width="27" height="22" rx="4" fill="#f8fbff"/><rect x="198" y="214" width="27" height="22" rx="4" fill="#f8fbff"/><rect x="232" y="214" width="27" height="22" rx="4" fill="#f8fbff"/><rect x="266" y="214" width="27" height="22" rx="4" fill="#f8fbff"/><rect x="300" y="214" width="27" height="22" rx="4" fill="#f8fbff"/><rect x="334" y="214" width="27" height="22" rx="4" fill="#f8fbff"/><rect x="368" y="214" width="27" height="22" rx="4" fill="#f8fbff"/><rect x="402" y="214" width="27" height="22" rx="4" fill="#f8fbff"/><rect x="436" y="214" width="27" height="22" rx="4" fill="#f8fbff"/><rect x="470" y="214" width="27" height="22" rx="4" fill="#f8fbff"/><rect x="130" y="244" width="27" height="22" rx="4" fill="#f8fbff"/><rect x="164" y="244" width="27" height="22" rx="4" fill="#f8fbff"/><rect x="198" y="244" width="27" height="22" rx="4" fill="#f8fbff"/><rect x="232" y="244" width="27" height="22" rx="4" fill="#f8fbff"/><rect x="266" y="244" width="27" height="22" rx="4" fill="#f8fbff"/><rect x="300" y="244" width="27" height="22" rx="4" fill="#f8fbff"/><rect x="334" y="244" width="27" height="22" rx="4" fill="#f8fbff"/><rect x="368" y="244" width="27" height="22" rx="4" fill="#f8fbff"/><rect x="402" y="244" width="27" height="22" rx="4" fill="#f8fbff"/><rect x="436" y="244" width="27" height="22" rx="4" fill="#f8fbff"/><rect x="470" y="244" width="27" height="22" rx="4" fill="#f8fbff"/><rect x="130" y="274" width="27" height="22" rx="4" fill="#f8fbff"/><rect x="164" y="274" width="27" height="22" rx="4" fill="#f8fbff"/><rect x="198" y="274" width="27" height="22" rx="4" fill="#f8fbff"/><rect x="232" y="274" width="27" height="22" rx="4" fill="#f8fbff"/><rect x="266" y="274" width="27" height="22" rx="4" fill="#f8fbff"/><rect x="300" y="274" width="27" height="22" rx="4" fill="#f8fbff"/><rect x="334" y="274" width="27" height="22" rx="4" fill="#f8fbff"/><rect x="368" y="274" width="27" height="22" rx="4" fill="#f8fbff"/><rect x="402" y="274" width="27" height="22" rx="4" fill="#f8fbff"/><rect x="436" y="274" width="27" height="22" rx="4" fill="#f8fbff"/><rect x="470" y="274" width="27" height="22" rx="4" fill="#f8fbff"/><rect x="234" y="305" width="175" height="18" rx="5" fill="#f8fbff"/></g></svg>